<svg width="301" height="122" viewBox="0 0 301 122" fill="none" xmlns="http://www.w3.org/2000/svg">
<path d="M41.05 71.4368C41.05 68.546 39.9272 66.2403 37.6835 64.5178C35.4377 62.7966 32.8403 61.9339 29.8886 61.9339H9.87095V81.7679H30.1652C33.1776 81.7679 35.7459 80.7996 37.8681 78.862C39.9894 76.9245 41.05 74.4506 41.05 71.4368ZM33.2092 47.8211C33.2092 45.7915 32.5015 44.2393 31.0873 43.163C29.6723 42.0868 27.9193 41.549 25.8296 41.549H9.87095V54.1866H25.8296C27.9193 54.1866 29.6723 53.6323 31.0873 52.5251C32.5015 51.4193 33.2092 49.8506 33.2092 47.8211ZM50.8286 71.5288C50.8286 76.5722 49.1679 80.831 45.8471 84.3043C42.5259 87.7789 38.3432 89.5167 33.3012 89.5167H0V33.7069H28.0436C31.9174 33.7069 35.2847 34.8463 38.1444 37.1204C41.0042 39.3965 42.4341 42.4398 42.4341 46.2524V47.1748C42.4341 50.4358 40.7417 53.2957 37.3602 55.7539C41.05 56.4311 44.2166 58.1846 46.8622 61.0122C49.5051 63.8419 50.8286 67.0707 50.8286 70.6985V71.5288Z" fill="white"/>
<path d="M103.778 89.5167H93.8152V46.0498L67.4323 74.1759V89.5167H57.5613V33.7069H67.4323V61.5665L93.8152 33.7069H103.778V89.5167Z" fill="white"/>
<path d="M191.042 89.5167H112.355V33.7069H122.133V81.7679H146.763V33.7069H156.634V81.7679H181.172V33.7069H191.042V89.5167Z" fill="white"/>
<path d="M246.207 89.5167H236.334V61.9339H210.782V89.5167H200.82V61.9339H196.392V54.1866H200.82V33.7069H210.782V54.1866H236.334V33.7069H246.207V89.5167Z" fill="white"/>
<path d="M291.039 54.1869H276.924C271.142 54.1258 268.253 51.9259 268.253 47.5886C268.253 45.6078 269.113 44.0584 270.835 42.9416C271.327 42.6332 271.868 42.4004 272.43 42.1998C272.594 42.193 272.698 42.1888 272.698 42.1888H291.039V54.1869ZM264.19 7.69315C263.456 7.972 262.643 8.21377 261.738 8.39028C259.376 8.8532 256.422 8.89027 252.762 8.05098C253.573 6.89918 255.196 5.37307 258.318 4.64641C258.668 4.56536 259.042 4.49737 259.43 4.43761C261.722 4.08527 264.698 4.1361 268.571 4.939C267.704 5.7989 266.278 6.90124 264.19 7.69315ZM293.74 33.427C292.632 33.0349 291.361 32.8357 289.966 32.8357C287.197 32.8357 284.35 33.6132 282.234 34.3639C282.313 33.6963 282.397 32.8714 282.472 31.9359C283.095 24.0897 282.977 7.96307 272.348 2.71093C272.197 2.63607 272.036 2.59967 271.873 2.57838C271.677 2.38264 271.449 2.21711 271.161 2.14568C252.289 -2.50549 249.411 8.17255 249.299 8.6293C249.091 9.46241 249.58 10.3106 250.406 10.5524C253.523 11.4638 256.261 11.8326 258.648 11.8326C264.15 11.8326 267.79 9.87656 269.966 8.09701C269.967 8.09014 269.968 8.08395 269.969 8.07709C269.959 8.08533 269.951 8.09356 269.94 8.1018C269.943 8.08532 269.945 8.07159 269.947 8.05511C270.706 7.41705 271.282 6.80921 271.684 6.32844C271.723 6.28036 271.752 6.2412 271.789 6.19587C272.177 6.42184 272.565 6.6478 272.953 6.87309C279.85 12.3876 279.765 25.4359 279.241 31.9359C279.129 33.3274 278.998 34.4257 278.91 35.0775C273.425 32.7457 268.93 32.4037 265.502 33.9174C264.749 34.3433 264.036 34.8357 263.369 35.3989C263.315 35.4442 263.271 35.4937 263.218 35.539C263.245 35.5603 263.271 35.5837 263.298 35.6049C262.749 35.9552 262.2 36.4497 261.666 37.1304C261.458 37.3955 261.27 37.662 261.087 37.9298C261.082 37.9257 261.076 37.9209 261.072 37.9168C260.804 38.3014 260.567 38.7011 260.35 39.1119C257.876 43.5453 258.398 47.816 258.398 47.816L258.411 47.8146C258.554 51.0447 259.764 53.8325 262.073 56.1691C264.532 58.6595 267.546 60.1211 271.113 60.551C269.329 61.3519 265.885 65.7798 260.782 73.8356L251.556 88.4098L261.335 90.3474C273.326 71.4056 280.214 61.9343 281.998 61.9343H291.039V89.517H301.001V42.1888V42.0295V40.1565V39.7527C299.554 36.7107 297.17 34.6386 293.74 33.427Z" fill="white"/>
<path d="M47.0539 111.177C48.3349 111.177 49.4963 111.097 50.0766 110.697C50.8775 110.156 51.2971 108.335 51.598 107.134C52.098 105.152 52.8191 104.111 54.9208 104.491V105.232C53.2992 105.012 52.859 105.693 52.4585 107.354C52.1186 108.715 51.7381 110.357 50.8376 111.217L55.2209 118.343V118.483H54.2202L50.0966 111.658C49.4558 112.038 47.7943 112.038 47.0539 112.038V118.483H46.1329V104.472H47.0539V111.177Z" fill="white"/>
<path d="M61.8688 117.763C64.8112 117.763 66.9726 115.541 66.9726 111.457C66.9726 107.454 64.871 105.152 61.8881 105.152C58.9457 105.152 56.8042 107.555 56.8042 111.457C56.8042 115.421 58.9457 117.763 61.8688 117.763ZM61.8688 118.684C58.4457 118.684 55.8633 116.021 55.8633 111.457C55.8633 106.894 58.4856 104.231 61.8688 104.231C65.3318 104.231 67.9136 106.894 67.9136 111.457C67.9136 116.002 65.4314 118.684 61.8688 118.684Z" fill="white"/>
<path d="M77.202 104.472V105.372H73.3187V118.483H72.3785V105.372H68.5151V104.472H77.202Z" fill="white"/>
<path d="M86.4115 104.472V105.372H82.5282V118.483H81.5879V105.372H77.7245V104.472H86.4115Z" fill="white"/>
<path d="M89.2529 110.797H94.9975V111.678H89.2529V117.562H95.3175V118.483H88.3518V104.472H95.2378V105.353H89.2529V110.797Z" fill="white"/>
<path d="M102.605 106.134H102.584L98.941 117.603H106.447L102.605 106.134ZM96.6594 117.603H97.9602L102.384 104.272H102.784L107.408 117.603H108.75V121.025H107.969V118.483H97.4801V121.025H96.6594V117.603Z" fill="white"/>
<path d="M123.784 118.483C122.402 116.202 121.021 113.879 119.66 111.618C119.079 111.958 118.119 112.098 117.478 112.098V118.483H116.558V112.098C115.897 112.098 115.016 111.958 114.435 111.618C113.074 113.879 111.673 116.202 110.312 118.483H109.231V118.343L113.595 111.217C112.734 110.397 112.334 108.796 111.994 107.454C111.533 105.693 111.053 105.012 109.531 105.252V104.491C111.433 104.151 112.334 105.073 112.854 107.154C113.415 109.476 113.595 111.157 116.558 111.237V104.472H117.478V111.237C120.34 111.237 120.641 109.576 121.221 107.174C121.722 105.092 122.642 104.151 124.544 104.491V105.252C123.043 105.012 122.522 105.693 122.062 107.454C121.722 108.796 121.341 110.397 120.461 111.217C121.902 113.579 123.383 115.981 124.844 118.343V118.483H123.784Z" fill="white"/>
<path d="M127.728 111.557V118.483H126.788V104.472H127.728V110.656H134.754V104.472H135.715V118.483H134.754V111.557H127.728Z" fill="white"/>
<path d="M149.807 104.472H150.768V118.483H149.807V104.472ZM139.999 117.583H143.462C145.344 117.583 146.745 116.222 146.785 113.979C146.825 111.778 145.444 110.397 143.603 110.397H139.999V117.583ZM143.603 109.476C146.105 109.476 147.786 111.357 147.706 114.08C147.646 116.682 145.945 118.483 143.603 118.483H139.079V104.472H139.999V109.476H143.603Z" fill="white"/>
<path d="M156.614 100.969C156.794 102.449 157.835 103.21 159.076 103.21C160.376 103.21 161.338 102.39 161.538 100.969C161.338 100.928 161.118 100.889 160.917 100.869C160.738 101.949 159.937 102.47 159.076 102.47C158.135 102.43 157.415 101.91 157.254 100.869L156.614 100.969ZM162.499 111.437L162.578 106.693L154.452 118.483H154.132V104.451H155.073V111.157L154.992 116.202L163.079 104.451H163.439V118.483H162.499V111.437Z" fill="white"/>
<path d="M179.255 118.483V105.372H172.209V118.483H171.268V104.472H180.195V118.483H179.255Z" fill="white"/>
<path d="M188.824 117.763C191.767 117.763 193.928 115.541 193.928 111.457C193.928 107.454 191.826 105.152 188.844 105.152C185.901 105.152 183.759 107.555 183.759 111.457C183.759 115.421 185.901 117.763 188.824 117.763ZM188.824 118.684C185.401 118.684 182.819 116.021 182.819 111.457C182.819 106.894 185.441 104.231 188.824 104.231C192.287 104.231 194.869 106.894 194.869 111.457C194.869 116.002 192.387 118.684 188.824 118.684Z" fill="white"/>
<path d="M202.736 104.272C205.118 104.272 207.28 105.473 207.961 108.335H207.06C206.419 105.994 204.538 105.132 202.716 105.132C199.413 105.132 197.672 107.834 197.672 111.478C197.672 115.321 199.413 117.784 202.736 117.784C204.699 117.784 206.46 116.902 207.14 114.321H208.041C207.44 117.302 205.078 118.684 202.736 118.684C198.993 118.684 196.751 115.921 196.751 111.478C196.751 107.214 199.113 104.272 202.736 104.272Z" fill="white"/>
<path d="M211.385 110.797H217.129V111.678H211.385V117.562H217.449V118.483H210.484V104.472H217.37V105.353H211.385V110.797Z" fill="white"/>
<path d="M219.053 118.343L224.136 104.292H224.577L229.661 118.343V118.483H228.72L224.337 106.093L219.994 118.483H219.053V118.343Z" fill="white"/>
<path d="M237.126 117.763C240.068 117.763 242.23 115.541 242.23 111.457C242.23 107.454 240.128 105.152 237.146 105.152C234.203 105.152 232.061 107.555 232.061 111.457C232.061 115.421 234.204 117.763 237.126 117.763ZM237.126 118.684C233.702 118.684 231.12 116.021 231.12 111.457C231.12 106.894 233.743 104.231 237.126 104.231C240.588 104.231 243.171 106.894 243.171 111.457C243.171 116.002 240.688 118.684 237.126 118.684Z" fill="white"/>
<path d="M246.696 111.177C247.977 111.177 249.138 111.097 249.718 110.697C250.519 110.156 250.94 108.335 251.239 107.134C251.74 105.152 252.461 104.111 254.562 104.491V105.232C252.941 105.012 252.501 105.693 252.101 107.354C251.76 108.715 251.38 110.357 250.479 111.217L254.863 118.343V118.483H253.862L249.739 111.658C249.098 112.038 247.437 112.038 246.696 112.038V118.483H245.775V104.472H246.696V111.177Z" fill="white"/>
</svg>
